ISO-10303-21;
HEADER;
FILE_DESCRIPTION (( 'STEP AP214' ),
    '1' );
FILE_NAME ('kakoyto_rockhip.STEP',
    '2026-08-18T21:23:09',
    ( '' ),
    ( '' ),
    'SwSTEP 2.0',
    'SolidWorks 2025',
    '' );
FILE_SCHEMA (( 'AUTOMOTIVE_DESIGN' ));
ENDSEC;

DATA;
#1 = SURFACE_STYLE_FILL_AREA ( #57 ) ;
#2 = STYLED_ITEM ( 'NONE', ( #110 ), #256 ) ;
#3 = APPLICATION_PROTOCOL_DEFINITION ( 'draft international standard', 'automotive_design', 1998, #339 ) ;
#4 = ORIENTED_EDGE ( 'NONE', *, *, #192, .T. ) ;
#5 = AXIS2_PLACEMENT_3D ( 'NONE', #313, #228, #35 ) ;
#6 = ORIENTED_EDGE ( 'NONE', *, *, #306, .T. ) ;
#7 = DIRECTION ( 'NONE',  ( -0.000000000000000000, -0.000000000000000000, -1.000000000000000000 ) ) ;
#8 = DIRECTION ( 'NONE',  ( -0.000000000000000000, -1.000000000000000000, -0.000000000000000000 ) ) ;
#9 =( NAMED_UNIT ( * ) SI_UNIT ( $, .STERADIAN. ) SOLID_ANGLE_UNIT ( ) );
#10 = VERTEX_POINT ( 'NONE', #258 ) ;
#11 = COLOUR_RGB ( '',0.1019607843137254888, 0.1019607843137254888, 0.1019607843137254888 ) ;
#12 = SURFACE_STYLE_USAGE ( .BOTH. , #324 ) ;
#13 = LINE ( 'NONE', #262, #32 ) ;
#14 = UNCERTAINTY_MEASURE_WITH_UNIT (LENGTH_MEASURE( 1.000000000000000082E-05 ), #323, 'distance_accuracy_value', 'NONE');
#15 = SURFACE_STYLE_USAGE ( .BOTH. , #295 ) ;
#16 = PLANE ( 'NONE',  #200 ) ;
#17 = FACE_OUTER_BOUND ( 'NONE', #325, .T. ) ;
#18 = EDGE_CURVE ( 'NONE', #160, #10, #13, .T. ) ;
#19 = DIRECTION ( 'NONE',  ( 0.000000000000000000, 0.000000000000000000, -1.000000000000000000 ) ) ;
#20 = CARTESIAN_POINT ( 'NONE',  ( -6.999999999999999112, -6.999999999999999112, 0.8000000000000000444 ) ) ;
#21 = AXIS2_PLACEMENT_3D ( 'NONE', #185, #251, #273 ) ;
#22 = CARTESIAN_POINT ( 'NONE',  ( -6.999999999999999112, -6.999999999999999112, 0.8000000000000000444 ) ) ;
#23 = PRESENTATION_LAYER_ASSIGNMENT (  '', '', ( #291 ) ) ;
#24 = DIRECTION ( 'NONE',  ( 1.000000000000000000, 0.000000000000000000, 0.000000000000000000 ) ) ;
#25 = COLOUR_RGB ( '',1.000000000000000000, 1.000000000000000000, 1.000000000000000000 ) ;
#26 =( NAMED_UNIT ( * ) SI_UNIT ( $, .STERADIAN. ) SOLID_ANGLE_UNIT ( ) );
#27 = DIRECTION ( 'NONE',  ( 0.000000000000000000, 0.000000000000000000, 1.000000000000000000 ) ) ;
#28 = ORIENTED_EDGE ( 'NONE', *, *, #153, .T. ) ;
#29 = COLOUR_RGB ( '',0.1019607843137254888, 0.1019607843137254888, 0.1019607843137254888 ) ;
#30 = DIRECTION ( 'NONE',  ( -0.000000000000000000, -0.000000000000000000, 1.000000000000000000 ) ) ;
#31 = LINE ( 'NONE', #164, #59 ) ;
#32 = VECTOR ( 'NONE', #8, 1000.000000000000000 ) ;
#33 = ORIENTED_EDGE ( 'NONE', *, *, #306, .F. ) ;
#34 = DIRECTION ( 'NONE',  ( 0.000000000000000000, 0.000000000000000000, 1.000000000000000000 ) ) ;
#35 = DIRECTION ( 'NONE',  ( 0.000000000000000000, 0.000000000000000000, 1.000000000000000000 ) ) ;
#36 = LINE ( 'NONE', #168, #240 ) ;
#37 = EDGE_LOOP ( 'NONE', ( #28, #61, #344, #4 ) ) ;
#38 = ADVANCED_BREP_SHAPE_REPRESENTATION ( 'kakoyto_rockhip', ( #256, #248 ), #52 ) ;
#39 =( GEOMETRIC_REPRESENTATION_CONTEXT ( 3 ) GLOBAL_UNCERTAINTY_ASSIGNED_CONTEXT ( ( #214 ) ) GLOBAL_UNIT_ASSIGNED_CONTEXT ( ( #333, #369, #307 ) ) REPRESENTATION_CONTEXT ( 'NONE', 'WORKASPACE' ) );
#40 =( LENGTH_UNIT ( ) NAMED_UNIT ( * ) SI_UNIT ( .MILLI., .METRE. ) );
#41 = DIRECTION ( 'NONE',  ( 1.000000000000000000, 0.000000000000000000, -0.000000000000000000 ) ) ;
#42 =( GEOMETRIC_REPRESENTATION_CONTEXT ( 3 ) GLOBAL_UNCERTAINTY_ASSIGNED_CONTEXT ( ( #308 ) ) GLOBAL_UNIT_ASSIGNED_CONTEXT ( ( #124, #400, #161 ) ) REPRESENTATION_CONTEXT ( 'NONE', 'WORKASPACE' ) );
#43 = FILL_AREA_STYLE_COLOUR ( '', #234 ) ;
#44 = MECHANICAL_DESIGN_GEOMETRIC_PRESENTATION_REPRESENTATION (  '', ( #186 ), #82 ) ;
#45 = DIRECTION ( 'NONE',  ( -1.000000000000000000, -1.239088197126290817E-16, -0.000000000000000000 ) ) ;
#46 = EDGE_CURVE ( 'NONE', #290, #10, #221, .T. ) ;
#47 = LINE ( 'NONE', #22, #366 ) ;
#48 = PRODUCT ( 'kakoyto_rockhip', 'kakoyto_rockhip', '', ( #316 ) ) ;
#49 = DIRECTION ( 'NONE',  ( -0.000000000000000000, -0.000000000000000000, 1.000000000000000000 ) ) ;
#50 = MECHANICAL_DESIGN_GEOMETRIC_PRESENTATION_REPRESENTATION (  '', ( #291 ), #284 ) ;
#51 = SURFACE_SIDE_STYLE ('',( #85 ) ) ;
#52 =( GEOMETRIC_REPRESENTATION_CONTEXT ( 3 ) GLOBAL_UNCERTAINTY_ASSIGNED_CONTEXT ( ( #14 ) ) GLOBAL_UNIT_ASSIGNED_CONTEXT ( ( #323, #66, #255 ) ) REPRESENTATION_CONTEXT ( 'NONE', 'WORKASPACE' ) );
#53 = UNCERTAINTY_MEASURE_WITH_UNIT (LENGTH_MEASURE( 1.000000000000000082E-05 ), #188, 'distance_accuracy_value', 'NONE');
#54 = DIRECTION ( 'NONE',  ( 0.000000000000000000, 1.000000000000000000, 0.000000000000000000 ) ) ;
#55 = PRESENTATION_STYLE_ASSIGNMENT (( #337 ) ) ;
#56 = PRESENTATION_STYLE_ASSIGNMENT (( #187 ) ) ;
#57 = FILL_AREA_STYLE ('',( #87 ) ) ;
#58 = PRODUCT_DEFINITION ( 'UNKNOWN', '', #390, #114 ) ;
#59 = VECTOR ( 'NONE', #7, 1000.000000000000000 ) ;
#60 = SURFACE_STYLE_FILL_AREA ( #163 ) ;
#61 = ORIENTED_EDGE ( 'NONE', *, *, #177, .T. ) ;
#62 = EDGE_LOOP ( 'NONE', ( #355, #318, #138, #123 ) ) ;
#63 = DIRECTION ( 'NONE',  ( -1.239088197126290817E-16, 1.000000000000000000, 0.000000000000000000 ) ) ;
#64 = ORIENTED_EDGE ( 'NONE', *, *, #18, .F. ) ;
#65 = MECHANICAL_DESIGN_GEOMETRIC_PRESENTATION_REPRESENTATION (  '', ( #140 ), #347 ) ;
#66 =( NAMED_UNIT ( * ) PLANE_ANGLE_UNIT ( ) SI_UNIT ( $, .RADIAN. ) );
#67 = FACE_OUTER_BOUND ( 'NONE', #98, .T. ) ;
#68 = VERTEX_POINT ( 'NONE', #374 ) ;
#69 = DIRECTION ( 'NONE',  ( -0.000000000000000000, -0.000000000000000000, 1.000000000000000000 ) ) ;
#70 = ORIENTED_EDGE ( 'NONE', *, *, #219, .F. ) ;
#71 = DIRECTION ( 'NONE',  ( -1.000000000000000000, -1.239088197126290817E-16, 0.000000000000000000 ) ) ;
#72 = EDGE_LOOP ( 'NONE', ( #199, #224, #70, #64 ) ) ;
#73 = DIRECTION ( 'NONE',  ( 0.000000000000000000, 0.000000000000000000, 1.000000000000000000 ) ) ;
#74 = MECHANICAL_DESIGN_GEOMETRIC_PRESENTATION_REPRESENTATION (  '', ( #217 ), #235 ) ;
#75 = CARTESIAN_POINT ( 'NONE',  ( -6.999999999999999112, -6.999999999999999112, 0.8000000000000000444 ) ) ;
#76 = EDGE_CURVE ( 'NONE', #68, #165, #36, .T. ) ;
#77 =( LENGTH_UNIT ( ) NAMED_UNIT ( * ) SI_UNIT ( .MILLI., .METRE. ) );
#78 = PLANE ( 'NONE',  #264 ) ;
#79 = MECHANICAL_DESIGN_GEOMETRIC_PRESENTATION_REPRESENTATION (  '', ( #359 ), #172 ) ;
#80 = LINE ( 'NONE', #142, #84 ) ;
#81 = DIRECTION ( 'NONE',  ( 1.000000000000000000, 0.000000000000000000, 0.000000000000000000 ) ) ;
#82 =( GEOMETRIC_REPRESENTATION_CONTEXT ( 3 ) GLOBAL_UNCERTAINTY_ASSIGNED_CONTEXT ( ( #305 ) ) GLOBAL_UNIT_ASSIGNED_CONTEXT ( ( #310, #226, #26 ) ) REPRESENTATION_CONTEXT ( 'NONE', 'WORKASPACE' ) );
#83 =( LENGTH_UNIT ( ) NAMED_UNIT ( * ) SI_UNIT ( .MILLI., .METRE. ) );
#84 = VECTOR ( 'NONE', #45, 1000.000000000000000 ) ;
#85 = SURFACE_STYLE_FILL_AREA ( #242 ) ;
#86 = DIRECTION ( 'NONE',  ( -0.000000000000000000, -0.000000000000000000, -1.000000000000000000 ) ) ;
#87 = FILL_AREA_STYLE_COLOUR ( '', #315 ) ;
#88 = VECTOR ( 'NONE', #30, 1000.000000000000000 ) ;
#89 = FACE_OUTER_BOUND ( 'NONE', #371, .T. ) ;
#90 = SURFACE_SIDE_STYLE ('',( #368 ) ) ;
#91 = EDGE_CURVE ( 'NONE', #384, #95, #31, .T. ) ;
#92 =( NAMED_UNIT ( * ) PLANE_ANGLE_UNIT ( ) SI_UNIT ( $, .RADIAN. ) );
#93 = PLANE ( 'NONE',  #334 ) ;
#94 = ORIENTED_EDGE ( 'NONE', *, *, #76, .F. ) ;
#95 = VERTEX_POINT ( 'NONE', #206 ) ;
#96 = ORIENTED_EDGE ( 'NONE', *, *, #276, .F. ) ;
#97 = VERTEX_POINT ( 'NONE', #241 ) ;
#98 = EDGE_LOOP ( 'NONE', ( #129, #103, #171, #288 ) ) ;
#99 = CYLINDRICAL_SURFACE ( 'NONE', #146, 0.5000000000000013323 ) ;
#100 = VERTEX_POINT ( 'NONE', #272 ) ;
#101 = AXIS2_PLACEMENT_3D ( 'NONE', #341, #179, #121 ) ;
#102 = FILL_AREA_STYLE_COLOUR ( '', #301 ) ;
#103 = ORIENTED_EDGE ( 'NONE', *, *, #120, .F. ) ;
#104 =( NAMED_UNIT ( * ) PLANE_ANGLE_UNIT ( ) SI_UNIT ( $, .RADIAN. ) );
#105 = AXIS2_PLACEMENT_3D ( 'NONE', #287, #63, #71 ) ;
#106 = SURFACE_STYLE_USAGE ( .BOTH. , #141 ) ;
#107 = CARTESIAN_POINT ( 'NONE',  ( 7.000000000000000888, -6.999999999999997335, 0.8000000000000000444 ) ) ;
#108 = LINE ( 'NONE', #329, #401 ) ;
#109 = CARTESIAN_POINT ( 'NONE',  ( -6.999999999999999112, 7.000000000000000888, 0.8000000000000000444 ) ) ;
#110 = PRESENTATION_STYLE_ASSIGNMENT (( #335 ) ) ;
#111 = CYLINDRICAL_SURFACE ( 'NONE', #259, 0.5000000000000013323 ) ;
#112 = DIRECTION ( 'NONE',  ( 1.000000000000000000, 0.000000000000000000, -0.000000000000000000 ) ) ;
#113 = PRESENTATION_LAYER_ASSIGNMENT (  '', '', ( #364 ) ) ;
#114 = PRODUCT_DEFINITION_CONTEXT ( 'detailed design', #339, 'design' ) ;
#115 = DIRECTION ( 'NONE',  ( 1.000000000000000000, 1.239088197126290817E-16, 0.000000000000000000 ) ) ;
#116 = FACE_BOUND ( 'NONE', #254, .T. ) ;
#117 = VECTOR ( 'NONE', #128, 1000.000000000000000 ) ;
#118 = LINE ( 'NONE', #243, #145 ) ;
#119 = ORIENTED_EDGE ( 'NONE', *, *, #378, .F. ) ;
#120 = EDGE_CURVE ( 'NONE', #158, #100, #108, .T. ) ;
#121 = DIRECTION ( 'NONE',  ( 1.000000000000000000, 0.000000000000000000, 0.000000000000000000 ) ) ;
#122 = VECTOR ( 'NONE', #215, 1000.000000000000000 ) ;
#123 = ORIENTED_EDGE ( 'NONE', *, *, #120, .T. ) ;
#124 =( LENGTH_UNIT ( ) NAMED_UNIT ( * ) SI_UNIT ( .MILLI., .METRE. ) );
#125 = FILL_AREA_STYLE ('',( #102 ) ) ;
#126 =( GEOMETRIC_REPRESENTATION_CONTEXT ( 3 ) GLOBAL_UNCERTAINTY_ASSIGNED_CONTEXT ( ( #253 ) ) GLOBAL_UNIT_ASSIGNED_CONTEXT ( ( #352, #133, #321 ) ) REPRESENTATION_CONTEXT ( 'NONE', 'WORKASPACE' ) );
#127 = SURFACE_STYLE_USAGE ( .BOTH. , #383 ) ;
#128 = DIRECTION ( 'NONE',  ( -0.000000000000000000, -0.000000000000000000, -1.000000000000000000 ) ) ;
#129 = ORIENTED_EDGE ( 'NONE', *, *, #219, .T. ) ;
#130 = ORIENTED_EDGE ( 'NONE', *, *, #166, .T. ) ;
#131 = EDGE_CURVE ( 'NONE', #286, #165, #230, .T. ) ;
#132 = MECHANICAL_DESIGN_GEOMETRIC_PRESENTATION_REPRESENTATION (  '', ( #312 ), #159 ) ;
#133 =( NAMED_UNIT ( * ) PLANE_ANGLE_UNIT ( ) SI_UNIT ( $, .RADIAN. ) );
#134 = ORIENTED_EDGE ( 'NONE', *, *, #309, .T. ) ;
#135 = PRESENTATION_LAYER_ASSIGNMENT (  '', '', ( #393 ) ) ;
#136 = SURFACE_STYLE_USAGE ( .BOTH. , #345 ) ;
#137 = LINE ( 'NONE', #223, #88 ) ;
#138 = ORIENTED_EDGE ( 'NONE', *, *, #192, .F. ) ;
#139 = VECTOR ( 'NONE', #394, 1000.000000000000000 ) ;
#140 = STYLED_ITEM ( 'NONE', ( #236 ), #201 ) ;
#141 = SURFACE_SIDE_STYLE ('',( #202 ) ) ;
#142 = CARTESIAN_POINT ( 'NONE',  ( -6.999999999999999112, 7.000000000000000888, 0.8000000000000000444 ) ) ;
#143 = ADVANCED_FACE ( 'NONE', ( #209 ), #78, .F. ) ;
#144 = DIRECTION ( 'NONE',  ( 0.000000000000000000, 1.000000000000000000, 0.000000000000000000 ) ) ;
#145 = VECTOR ( 'NONE', #147, 1000.000000000000000 ) ;
#146 = AXIS2_PLACEMENT_3D ( 'NONE', #350, #69, #222 ) ;
#147 = DIRECTION ( 'NONE',  ( -1.000000000000000000, -1.239088197126290817E-16, -0.000000000000000000 ) ) ;
#148 = SURFACE_SIDE_STYLE ('',( #182 ) ) ;
#149 = SURFACE_STYLE_FILL_AREA ( #296 ) ;
#150 = FACE_OUTER_BOUND ( 'NONE', #72, .T. ) ;
#151 = STYLED_ITEM ( 'NONE', ( #55 ), #338 ) ;
#152 = CARTESIAN_POINT ( 'NONE',  ( 0.000000000000000000, 0.000000000000000000, 0.8000000000000000444 ) ) ;
#153 = EDGE_CURVE ( 'NONE', #384, #97, #80, .T. ) ;
#154 =( NAMED_UNIT ( * ) SI_UNIT ( $, .STERADIAN. ) SOLID_ANGLE_UNIT ( ) );
#155 =( GEOMETRIC_REPRESENTATION_CONTEXT ( 3 ) GLOBAL_UNCERTAINTY_ASSIGNED_CONTEXT ( ( #263 ) ) GLOBAL_UNIT_ASSIGNED_CONTEXT ( ( #83, #298, #245 ) ) REPRESENTATION_CONTEXT ( 'NONE', 'WORKASPACE' ) );
#156 = VECTOR ( 'NONE', #144, 1000.000000000000000 ) ;
#157 =( LENGTH_UNIT ( ) NAMED_UNIT ( * ) SI_UNIT ( .MILLI., .METRE. ) );
#158 = VERTEX_POINT ( 'NONE', #362 ) ;
#159 =( GEOMETRIC_REPRESENTATION_CONTEXT ( 3 ) GLOBAL_UNCERTAINTY_ASSIGNED_CONTEXT ( ( #379 ) ) GLOBAL_UNIT_ASSIGNED_CONTEXT ( ( #77, #297, #356 ) ) REPRESENTATION_CONTEXT ( 'NONE', 'WORKASPACE' ) );
#160 = VERTEX_POINT ( 'NONE', #270 ) ;
#161 =( NAMED_UNIT ( * ) SI_UNIT ( $, .STERADIAN. ) SOLID_ANGLE_UNIT ( ) );
#162 = PRESENTATION_LAYER_ASSIGNMENT (  '', '', ( #151 ) ) ;
#163 = FILL_AREA_STYLE ('',( #231 ) ) ;
#164 = CARTESIAN_POINT ( 'NONE',  ( 7.000000000000000888, 7.000000000000002665, 0.8000000000000000444 ) ) ;
#165 = VERTEX_POINT ( 'NONE', #328 ) ;
#166 = EDGE_CURVE ( 'NONE', #97, #160, #269, .T. ) ;
#167 = DIRECTION ( 'NONE',  ( 1.000000000000000000, 0.000000000000000000, 0.000000000000000000 ) ) ;
#168 = CARTESIAN_POINT ( 'NONE',  ( -5.499999999999998224, 6.000000000000002665, 0.3000000000000000444 ) ) ;
#169 = APPLICATION_PROTOCOL_DEFINITION ( 'draft international standard', 'automotive_design', 1998, #319 ) ;
#170 = PRESENTATION_STYLE_ASSIGNMENT (( #12 ) ) ;
#171 = ORIENTED_EDGE ( 'NONE', *, *, #250, .F. ) ;
#172 =( GEOMETRIC_REPRESENTATION_CONTEXT ( 3 ) GLOBAL_UNCERTAINTY_ASSIGNED_CONTEXT ( ( #53 ) ) GLOBAL_UNIT_ASSIGNED_CONTEXT ( ( #188, #285, #282 ) ) REPRESENTATION_CONTEXT ( 'NONE', 'WORKASPACE' ) );
#173 = FACE_OUTER_BOUND ( 'NONE', #380, .T. ) ;
#174 = VECTOR ( 'NONE', #54, 1000.000000000000000 ) ;
#175 = FILL_AREA_STYLE ('',( #204 ) ) ;
#176 = FILL_AREA_STYLE_COLOUR ( '', #331 ) ;
#177 = EDGE_CURVE ( 'NONE', #97, #290, #360, .T. ) ;
#178 = PRESENTATION_STYLE_ASSIGNMENT (( #15 ) ) ;
#179 = DIRECTION ( 'NONE',  ( 0.000000000000000000, 0.000000000000000000, 1.000000000000000000 ) ) ;
#180 = PRESENTATION_LAYER_ASSIGNMENT (  '', '', ( #359 ) ) ;
#181 = LINE ( 'NONE', #367, #122 ) ;
#182 = SURFACE_STYLE_FILL_AREA ( #396 ) ;
#183 = UNCERTAINTY_MEASURE_WITH_UNIT (LENGTH_MEASURE( 1.000000000000000082E-05 ), #274, 'distance_accuracy_value', 'NONE');
#184 = DIRECTION ( 'NONE',  ( 1.000000000000000000, 0.000000000000000000, 0.000000000000000000 ) ) ;
#185 = CARTESIAN_POINT ( 'NONE',  ( -5.999999999999999112, 6.000000000000002665, 0.3000000000000000444 ) ) ;
#186 = STYLED_ITEM ( 'NONE', ( #382 ), #386 ) ;
#187 = SURFACE_STYLE_USAGE ( .BOTH. , #237 ) ;
#188 =( LENGTH_UNIT ( ) NAMED_UNIT ( * ) SI_UNIT ( .MILLI., .METRE. ) );
#189 = SURFACE_STYLE_FILL_AREA ( #261 ) ;
#190 = CARTESIAN_POINT ( 'NONE',  ( -6.999999999999999112, -6.999999999999999112, 0.8000000000000000444 ) ) ;
#191 = PRESENTATION_LAYER_ASSIGNMENT (  '', '', ( #217 ) ) ;
#192 = EDGE_CURVE ( 'NONE', #158, #384, #208, .T. ) ;
#193 = PRESENTATION_STYLE_ASSIGNMENT (( #127 ) ) ;
#194 = VERTEX_POINT ( 'NONE', #391 ) ;
#195 = ADVANCED_FACE ( 'NONE', ( #17 ), #265, .T. ) ;
#196 = FACE_OUTER_BOUND ( 'NONE', #62, .T. ) ;
#197 = ORIENTED_EDGE ( 'NONE', *, *, #276, .T. ) ;
#198 = CARTESIAN_POINT ( 'NONE',  ( 0.000000000000000000, 0.000000000000000000, 0.000000000000000000 ) ) ;
#199 = ORIENTED_EDGE ( 'NONE', *, *, #281, .F. ) ;
#200 = AXIS2_PLACEMENT_3D ( 'NONE', #109, #238, #332 ) ;
#201 = ADVANCED_FACE ( 'NONE', ( #173 ), #16, .F. ) ;
#202 = SURFACE_STYLE_FILL_AREA ( #175 ) ;
#203 = MECHANICAL_DESIGN_GEOMETRIC_PRESENTATION_REPRESENTATION (  '', ( #393 ), #39 ) ;
#204 = FILL_AREA_STYLE_COLOUR ( '', #29 ) ;
#205 = SURFACE_STYLE_FILL_AREA ( #330 ) ;
#206 = CARTESIAN_POINT ( 'NONE',  ( 7.000000000000000888, 7.000000000000002665, 0.000000000000000000 ) ) ;
#207 = COLOUR_RGB ( '',0.1019607843137254888, 0.1019607843137254888, 0.1019607843137254888 ) ;
#208 = LINE ( 'NONE', #107, #156 ) ;
#209 = FACE_OUTER_BOUND ( 'NONE', #260, .T. ) ;
#210 = FILL_AREA_STYLE_COLOUR ( '', #25 ) ;
#211 = LINE ( 'NONE', #363, #174 ) ;
#212 = AXIS2_PLACEMENT_3D ( 'NONE', #293, #73, #41 ) ;
#213 = PRESENTATION_STYLE_ASSIGNMENT (( #370 ) ) ;
#214 = UNCERTAINTY_MEASURE_WITH_UNIT (LENGTH_MEASURE( 1.000000000000000082E-05 ), #333, 'distance_accuracy_value', 'NONE');
#215 = DIRECTION ( 'NONE',  ( 1.000000000000000000, 1.239088197126290817E-16, 0.000000000000000000 ) ) ;
#216 = CARTESIAN_POINT ( 'NONE',  ( -5.999999999999999112, 6.000000000000002665, 0.3000000000000000444 ) ) ;
#217 = STYLED_ITEM ( 'NONE', ( #299 ), #267 ) ;
#218 = FILL_AREA_STYLE_COLOUR ( '', #300 ) ;
#219 = EDGE_CURVE ( 'NONE', #10, #100, #181, .T. ) ;
#220 = CARTESIAN_POINT ( 'NONE',  ( -6.999999999999999112, -6.999999999999999112, 0.8000000000000000444 ) ) ;
#221 = LINE ( 'NONE', #190, #117 ) ;
#222 = DIRECTION ( 'NONE',  ( 1.000000000000000000, 0.000000000000000000, 0.000000000000000000 ) ) ;
#223 = CARTESIAN_POINT ( 'NONE',  ( -6.500000000000000888, 6.000000000000002665, 0.3000000000000000444 ) ) ;
#224 = ORIENTED_EDGE ( 'NONE', *, *, #233, .F. ) ;
#225 = MECHANICAL_DESIGN_GEOMETRIC_PRESENTATION_REPRESENTATION (  '', ( #364 ), #42 ) ;
#226 =( NAMED_UNIT ( * ) PLANE_ANGLE_UNIT ( ) SI_UNIT ( $, .RADIAN. ) );
#227 = ORIENTED_EDGE ( 'NONE', *, *, #309, .F. ) ;
#228 = DIRECTION ( 'NONE',  ( -1.000000000000000000, 0.000000000000000000, 0.000000000000000000 ) ) ;
#229 = EDGE_LOOP ( 'NONE', ( #33, #346, #322, #94 ) ) ;
#230 = CIRCLE ( 'NONE', #244, 0.5000000000000013323 ) ;
#231 = FILL_AREA_STYLE_COLOUR ( '', #11 ) ;
#232 = ORIENTED_EDGE ( 'NONE', *, *, #131, .F. ) ;
#233 = EDGE_CURVE ( 'NONE', #100, #95, #211, .T. ) ;
#234 = COLOUR_RGB ( '',1.000000000000000000, 1.000000000000000000, 1.000000000000000000 ) ;
#235 =( GEOMETRIC_REPRESENTATION_CONTEXT ( 3 ) GLOBAL_UNCERTAINTY_ASSIGNED_CONTEXT ( ( #183 ) ) GLOBAL_UNIT_ASSIGNED_CONTEXT ( ( #274, #92, #154 ) ) REPRESENTATION_CONTEXT ( 'NONE', 'WORKASPACE' ) );
#236 = PRESENTATION_STYLE_ASSIGNMENT (( #106 ) ) ;
#237 = SURFACE_SIDE_STYLE ('',( #149 ) ) ;
#238 = DIRECTION ( 'NONE',  ( 1.239088197126290817E-16, -1.000000000000000000, 0.000000000000000000 ) ) ;
#239 = DIRECTION ( 'NONE',  ( 0.000000000000000000, 0.000000000000000000, 1.000000000000000000 ) ) ;
#240 = VECTOR ( 'NONE', #314, 1000.000000000000000 ) ;
#241 = CARTESIAN_POINT ( 'NONE',  ( -6.999999999999999112, 7.000000000000000888, 0.8000000000000000444 ) ) ;
#242 = FILL_AREA_STYLE ('',( #210 ) ) ;
#243 = CARTESIAN_POINT ( 'NONE',  ( -6.999999999999999112, 7.000000000000000888, 0.000000000000000000 ) ) ;
#244 = AXIS2_PLACEMENT_3D ( 'NONE', #303, #239, #81 ) ;
#245 =( NAMED_UNIT ( * ) SI_UNIT ( $, .STERADIAN. ) SOLID_ANGLE_UNIT ( ) );
#246 = PRESENTATION_LAYER_ASSIGNMENT (  '', '', ( #140 ) ) ;
#247 = PLANE ( 'NONE',  #381 ) ;
#248 = AXIS2_PLACEMENT_3D ( 'NONE', #320, #34, #167 ) ;
#249 = CLOSED_SHELL ( 'NONE', ( #386, #201, #143, #358, #351, #336, #338, #267, #195 ) ) ;
#250 = EDGE_CURVE ( 'NONE', #290, #158, #47, .T. ) ;
#251 = DIRECTION ( 'NONE',  ( 0.000000000000000000, 0.000000000000000000, 1.000000000000000000 ) ) ;
#252 = ORIENTED_EDGE ( 'NONE', *, *, #153, .F. ) ;
#253 = UNCERTAINTY_MEASURE_WITH_UNIT (LENGTH_MEASURE( 1.000000000000000082E-05 ), #352, 'distance_accuracy_value', 'NONE');
#254 = EDGE_LOOP ( 'NONE', ( #227, #232 ) ) ;
#255 =( NAMED_UNIT ( * ) SI_UNIT ( $, .STERADIAN. ) SOLID_ANGLE_UNIT ( ) );
#256 = MANIFOLD_SOLID_BREP ( '\X2\0412044b044004350437\X0\-\X2\0412044b0442044f043d04430442044c\X0\1', #249 ) ;
#257 = PLANE ( 'NONE',  #5 ) ;
#258 = CARTESIAN_POINT ( 'NONE',  ( -6.999999999999999112, -6.999999999999999112, 0.000000000000000000 ) ) ;
#259 = AXIS2_PLACEMENT_3D ( 'NONE', #216, #49, #184 ) ;
#260 = EDGE_LOOP ( 'NONE', ( #283, #342, #353, #130 ) ) ;
#261 = FILL_AREA_STYLE ('',( #289 ) ) ;
#262 = CARTESIAN_POINT ( 'NONE',  ( -6.999999999999999112, -6.999999999999999112, 0.000000000000000000 ) ) ;
#263 = UNCERTAINTY_MEASURE_WITH_UNIT (LENGTH_MEASURE( 1.000000000000000082E-05 ), #83, 'distance_accuracy_value', 'NONE');
#264 = AXIS2_PLACEMENT_3D ( 'NONE', #20, #266, #19 ) ;
#265 = PLANE ( 'NONE',  #212 ) ;
#266 = DIRECTION ( 'NONE',  ( 1.000000000000000000, 0.000000000000000000, 0.000000000000000000 ) ) ;
#267 = ADVANCED_FACE ( 'NONE', ( #89 ), #111, .F. ) ;
#268 = CARTESIAN_POINT ( 'NONE',  ( -6.999999999999999112, 7.000000000000000888, 0.8000000000000000444 ) ) ;
#269 = LINE ( 'NONE', #268, #387 ) ;
#270 = CARTESIAN_POINT ( 'NONE',  ( -6.999999999999999112, 7.000000000000000888, 0.000000000000000000 ) ) ;
#271 = PRODUCT_RELATED_PRODUCT_CATEGORY ( 'part', '', ( #48 ) ) ;
#272 = CARTESIAN_POINT ( 'NONE',  ( 7.000000000000000888, -6.999999999999997335, 0.000000000000000000 ) ) ;
#273 = DIRECTION ( 'NONE',  ( 1.000000000000000000, 0.000000000000000000, 0.000000000000000000 ) ) ;
#274 =( LENGTH_UNIT ( ) NAMED_UNIT ( * ) SI_UNIT ( .MILLI., .METRE. ) );
#275 = CIRCLE ( 'NONE', #101, 0.5000000000000013323 ) ;
#276 = EDGE_CURVE ( 'NONE', #68, #194, #389, .T. ) ;
#277 = PRESENTATION_LAYER_ASSIGNMENT (  '', '', ( #186 ) ) ;
#278 = SURFACE_STYLE_USAGE ( .BOTH. , #51 ) ;
#279 = ORIENTED_EDGE ( 'NONE', *, *, #91, .T. ) ;
#280 = PRESENTATION_LAYER_ASSIGNMENT (  '', '', ( #2 ) ) ;
#281 = EDGE_CURVE ( 'NONE', #95, #160, #118, .T. ) ;
#282 =( NAMED_UNIT ( * ) SI_UNIT ( $, .STERADIAN. ) SOLID_ANGLE_UNIT ( ) );
#283 = ORIENTED_EDGE ( 'NONE', *, *, #18, .T. ) ;
#284 =( GEOMETRIC_REPRESENTATION_CONTEXT ( 3 ) GLOBAL_UNCERTAINTY_ASSIGNED_CONTEXT ( ( #385 ) ) GLOBAL_UNIT_ASSIGNED_CONTEXT ( ( #157, #317, #9 ) ) REPRESENTATION_CONTEXT ( 'NONE', 'WORKASPACE' ) );
#285 =( NAMED_UNIT ( * ) PLANE_ANGLE_UNIT ( ) SI_UNIT ( $, .RADIAN. ) );
#286 = VERTEX_POINT ( 'NONE', #340 ) ;
#287 = CARTESIAN_POINT ( 'NONE',  ( -6.999999999999999112, -6.999999999999999112, 0.8000000000000000444 ) ) ;
#288 = ORIENTED_EDGE ( 'NONE', *, *, #46, .T. ) ;
#289 = FILL_AREA_STYLE_COLOUR ( '', #207 ) ;
#290 = VERTEX_POINT ( 'NONE', #220 ) ;
#291 = STYLED_ITEM ( 'NONE', ( #193 ), #358 ) ;
#292 = FACE_OUTER_BOUND ( 'NONE', #229, .T. ) ;
#293 = CARTESIAN_POINT ( 'NONE',  ( -5.999999999999999112, 6.000000000000002665, 0.3000000000000000444 ) ) ;
#294 = DIRECTION ( 'NONE',  ( -0.000000000000000000, -0.000000000000000000, -1.000000000000000000 ) ) ;
#295 = SURFACE_SIDE_STYLE ('',( #205 ) ) ;
#296 = FILL_AREA_STYLE ('',( #176 ) ) ;
#297 =( NAMED_UNIT ( * ) PLANE_ANGLE_UNIT ( ) SI_UNIT ( $, .RADIAN. ) );
#298 =( NAMED_UNIT ( * ) PLANE_ANGLE_UNIT ( ) SI_UNIT ( $, .RADIAN. ) );
#299 = PRESENTATION_STYLE_ASSIGNMENT (( #278 ) ) ;
#300 = COLOUR_RGB ( '',0.1019607843137254888, 0.1019607843137254888, 0.1019607843137254888 ) ;
#301 = COLOUR_RGB ( '',1.000000000000000000, 1.000000000000000000, 1.000000000000000000 ) ;
#302 = FILL_AREA_STYLE_COLOUR ( '', #357 ) ;
#303 = CARTESIAN_POINT ( 'NONE',  ( -5.999999999999999112, 6.000000000000002665, 0.8000000000000000444 ) ) ;
#304 = SURFACE_SIDE_STYLE ('',( #1 ) ) ;
#305 = UNCERTAINTY_MEASURE_WITH_UNIT (LENGTH_MEASURE( 1.000000000000000082E-05 ), #310, 'distance_accuracy_value', 'NONE');
#306 = EDGE_CURVE ( 'NONE', #194, #68, #275, .T. ) ;
#307 =( NAMED_UNIT ( * ) SI_UNIT ( $, .STERADIAN. ) SOLID_ANGLE_UNIT ( ) );
#308 = UNCERTAINTY_MEASURE_WITH_UNIT (LENGTH_MEASURE( 1.000000000000000082E-05 ), #124, 'distance_accuracy_value', 'NONE');
#309 = EDGE_CURVE ( 'NONE', #165, #286, #327, .T. ) ;
#310 =( LENGTH_UNIT ( ) NAMED_UNIT ( * ) SI_UNIT ( .MILLI., .METRE. ) );
#311 = ORIENTED_EDGE ( 'NONE', *, *, #281, .T. ) ;
#312 = STYLED_ITEM ( 'NONE', ( #178 ), #195 ) ;
#313 = CARTESIAN_POINT ( 'NONE',  ( 7.000000000000000888, -6.999999999999997335, 0.8000000000000000444 ) ) ;
#314 = DIRECTION ( 'NONE',  ( -0.000000000000000000, -0.000000000000000000, 1.000000000000000000 ) ) ;
#315 = COLOUR_RGB ( '',0.1019607843137254888, 0.1019607843137254888, 0.1019607843137254888 ) ;
#316 = PRODUCT_CONTEXT ( 'NONE', #319, 'mechanical' ) ;
#317 =( NAMED_UNIT ( * ) PLANE_ANGLE_UNIT ( ) SI_UNIT ( $, .RADIAN. ) );
#318 = ORIENTED_EDGE ( 'NONE', *, *, #91, .F. ) ;
#319 = APPLICATION_CONTEXT ( 'automotive_design' ) ;
#320 = CARTESIAN_POINT ( 'NONE',  ( 0.000000000000000000, 0.000000000000000000, 0.000000000000000000 ) ) ;
#321 =( NAMED_UNIT ( * ) SI_UNIT ( $, .STERADIAN. ) SOLID_ANGLE_UNIT ( ) );
#322 = ORIENTED_EDGE ( 'NONE', *, *, #131, .T. ) ;
#323 =( LENGTH_UNIT ( ) NAMED_UNIT ( * ) SI_UNIT ( .MILLI., .METRE. ) );
#324 = SURFACE_SIDE_STYLE ('',( #60 ) ) ;
#325 = EDGE_LOOP ( 'NONE', ( #197, #6 ) ) ;
#326 = UNCERTAINTY_MEASURE_WITH_UNIT (LENGTH_MEASURE( 1.000000000000000082E-05 ), #40, 'distance_accuracy_value', 'NONE');
#327 = CIRCLE ( 'NONE', #373, 0.5000000000000013323 ) ;
#328 = CARTESIAN_POINT ( 'NONE',  ( -5.499999999999998224, 6.000000000000002665, 0.8000000000000000444 ) ) ;
#329 = CARTESIAN_POINT ( 'NONE',  ( 7.000000000000000888, -6.999999999999997335, 0.8000000000000000444 ) ) ;
#330 = FILL_AREA_STYLE ('',( #43 ) ) ;
#331 = COLOUR_RGB ( '',0.1019607843137254888, 0.1019607843137254888, 0.1019607843137254888 ) ;
#332 = DIRECTION ( 'NONE',  ( 1.000000000000000000, 1.239088197126290817E-16, 0.000000000000000000 ) ) ;
#333 =( LENGTH_UNIT ( ) NAMED_UNIT ( * ) SI_UNIT ( .MILLI., .METRE. ) );
#334 = AXIS2_PLACEMENT_3D ( 'NONE', #152, #402, #112 ) ;
#335 = SURFACE_STYLE_USAGE ( .BOTH. , #148 ) ;
#336 = ADVANCED_FACE ( 'NONE', ( #116, #365 ), #93, .T. ) ;
#337 = SURFACE_STYLE_USAGE ( .BOTH. , #90 ) ;
#338 = ADVANCED_FACE ( 'NONE', ( #150 ), #247, .F. ) ;
#339 = APPLICATION_CONTEXT ( 'automotive_design' ) ;
#340 = CARTESIAN_POINT ( 'NONE',  ( -6.500000000000000888, 6.000000000000002665, 0.8000000000000000444 ) ) ;
#341 = CARTESIAN_POINT ( 'NONE',  ( -5.999999999999999112, 6.000000000000002665, 0.3000000000000000444 ) ) ;
#342 = ORIENTED_EDGE ( 'NONE', *, *, #46, .F. ) ;
#343 = DIRECTION ( 'NONE',  ( 1.000000000000000000, 0.000000000000000000, -0.000000000000000000 ) ) ;
#344 = ORIENTED_EDGE ( 'NONE', *, *, #250, .T. ) ;
#345 = SURFACE_SIDE_STYLE ('',( #348 ) ) ;
#346 = ORIENTED_EDGE ( 'NONE', *, *, #378, .T. ) ;
#347 =( GEOMETRIC_REPRESENTATION_CONTEXT ( 3 ) GLOBAL_UNCERTAINTY_ASSIGNED_CONTEXT ( ( #326 ) ) GLOBAL_UNIT_ASSIGNED_CONTEXT ( ( #40, #104, #392 ) ) REPRESENTATION_CONTEXT ( 'NONE', 'WORKASPACE' ) );
#348 = SURFACE_STYLE_FILL_AREA ( #125 ) ;
#349 = ORIENTED_EDGE ( 'NONE', *, *, #166, .F. ) ;
#350 = CARTESIAN_POINT ( 'NONE',  ( -5.999999999999999112, 6.000000000000002665, 0.3000000000000000444 ) ) ;
#351 = ADVANCED_FACE ( 'NONE', ( #196 ), #257, .F. ) ;
#352 =( LENGTH_UNIT ( ) NAMED_UNIT ( * ) SI_UNIT ( .MILLI., .METRE. ) );
#353 = ORIENTED_EDGE ( 'NONE', *, *, #177, .F. ) ;
#354 = PLANE ( 'NONE',  #105 ) ;
#355 = ORIENTED_EDGE ( 'NONE', *, *, #233, .T. ) ;
#356 =( NAMED_UNIT ( * ) SI_UNIT ( $, .STERADIAN. ) SOLID_ANGLE_UNIT ( ) );
#357 = COLOUR_RGB ( '',1.000000000000000000, 1.000000000000000000, 1.000000000000000000 ) ;
#358 = ADVANCED_FACE ( 'NONE', ( #67 ), #354, .F. ) ;
#359 = STYLED_ITEM ( 'NONE', ( #170 ), #351 ) ;
#360 = LINE ( 'NONE', #75, #139 ) ;
#361 = MECHANICAL_DESIGN_GEOMETRIC_PRESENTATION_REPRESENTATION (  '', ( #151 ), #126 ) ;
#362 = CARTESIAN_POINT ( 'NONE',  ( 7.000000000000000888, -6.999999999999997335, 0.8000000000000000444 ) ) ;
#363 = CARTESIAN_POINT ( 'NONE',  ( 7.000000000000000888, -6.999999999999997335, 0.000000000000000000 ) ) ;
#364 = STYLED_ITEM ( 'NONE', ( #56 ), #143 ) ;
#365 = FACE_OUTER_BOUND ( 'NONE', #37, .T. ) ;
#366 = VECTOR ( 'NONE', #115, 1000.000000000000000 ) ;
#367 = CARTESIAN_POINT ( 'NONE',  ( -6.999999999999999112, -6.999999999999999112, 0.000000000000000000 ) ) ;
#368 = SURFACE_STYLE_FILL_AREA ( #398 ) ;
#369 =( NAMED_UNIT ( * ) PLANE_ANGLE_UNIT ( ) SI_UNIT ( $, .RADIAN. ) );
#370 = SURFACE_STYLE_USAGE ( .BOTH. , #304 ) ;
#371 = EDGE_LOOP ( 'NONE', ( #119, #96, #377, #134 ) ) ;
#372 = CARTESIAN_POINT ( 'NONE',  ( -5.999999999999999112, 6.000000000000002665, 0.8000000000000000444 ) ) ;
#373 = AXIS2_PLACEMENT_3D ( 'NONE', #372, #397, #24 ) ;
#374 = CARTESIAN_POINT ( 'NONE',  ( -5.499999999999998224, 6.000000000000002665, 0.3000000000000000444 ) ) ;
#375 = SHAPE_DEFINITION_REPRESENTATION ( #395, #38 ) ;
#376 = CARTESIAN_POINT ( 'NONE',  ( 7.000000000000000888, 7.000000000000002665, 0.8000000000000000444 ) ) ;
#377 = ORIENTED_EDGE ( 'NONE', *, *, #76, .T. ) ;
#378 = EDGE_CURVE ( 'NONE', #194, #286, #137, .T. ) ;
#379 = UNCERTAINTY_MEASURE_WITH_UNIT (LENGTH_MEASURE( 1.000000000000000082E-05 ), #77, 'distance_accuracy_value', 'NONE');
#380 = EDGE_LOOP ( 'NONE', ( #311, #349, #252, #279 ) ) ;
#381 = AXIS2_PLACEMENT_3D ( 'NONE', #198, #27, #343 ) ;
#382 = PRESENTATION_STYLE_ASSIGNMENT (( #136 ) ) ;
#383 = SURFACE_SIDE_STYLE ('',( #189 ) ) ;
#384 = VERTEX_POINT ( 'NONE', #376 ) ;
#385 = UNCERTAINTY_MEASURE_WITH_UNIT (LENGTH_MEASURE( 1.000000000000000082E-05 ), #157, 'distance_accuracy_value', 'NONE');
#386 = ADVANCED_FACE ( 'NONE', ( #292 ), #99, .F. ) ;
#387 = VECTOR ( 'NONE', #294, 1000.000000000000000 ) ;
#388 = PRESENTATION_LAYER_ASSIGNMENT (  '', '', ( #312 ) ) ;
#389 = CIRCLE ( 'NONE', #21, 0.5000000000000013323 ) ;
#390 = PRODUCT_DEFINITION_FORMATION_WITH_SPECIFIED_SOURCE ( 'ANY', '', #48, .NOT_KNOWN. ) ;
#391 = CARTESIAN_POINT ( 'NONE',  ( -6.500000000000000888, 6.000000000000002665, 0.3000000000000000444 ) ) ;
#392 =( NAMED_UNIT ( * ) SI_UNIT ( $, .STERADIAN. ) SOLID_ANGLE_UNIT ( ) );
#393 = STYLED_ITEM ( 'NONE', ( #213 ), #336 ) ;
#394 = DIRECTION ( 'NONE',  ( -0.000000000000000000, -1.000000000000000000, -0.000000000000000000 ) ) ;
#395 = PRODUCT_DEFINITION_SHAPE ( 'NONE', 'NONE',  #58 ) ;
#396 = FILL_AREA_STYLE ('',( #302 ) ) ;
#397 = DIRECTION ( 'NONE',  ( 0.000000000000000000, 0.000000000000000000, 1.000000000000000000 ) ) ;
#398 = FILL_AREA_STYLE ('',( #218 ) ) ;
#399 = MECHANICAL_DESIGN_GEOMETRIC_PRESENTATION_REPRESENTATION (  '', ( #2 ), #155 ) ;
#400 =( NAMED_UNIT ( * ) PLANE_ANGLE_UNIT ( ) SI_UNIT ( $, .RADIAN. ) );
#401 = VECTOR ( 'NONE', #86, 1000.000000000000000 ) ;
#402 = DIRECTION ( 'NONE',  ( 0.000000000000000000, 0.000000000000000000, 1.000000000000000000 ) ) ;
ENDSEC;
END-ISO-10303-21;
